HIERARCHY
ROOT Hips
{
	OFFSET	0.00	0.00	0.00
	CHANNELS 6 Xposition Yposition Zposition Zrotation Xrotation Yrotation
	JOINT LeftUpLeg
	{
		OFFSET	 0.126116	-0.014019	-0.065224
		CHANNELS 3 Zrotation Xrotation Yrotation
		JOINT LeftLeg
		{
			OFFSET	 0.000000	 0.000000	 0.569914
			CHANNELS 3 Zrotation Xrotation Yrotation
			JOINT LeftFoot
			{
				OFFSET	 0.000000	 0.000000	 0.544423
				CHANNELS 3 Zrotation Xrotation Yrotation
				JOINT LeftToeBase
				{
					OFFSET	 0.000000	 0.000000	 0.207117
					CHANNELS 3 Zrotation Xrotation Yrotation
					End Site
					{
						OFFSET	 0.000000	 0.000000	 0.207117
					}
				}
			}
		}
	}
	JOINT RightUpLeg
	{
		OFFSET	-0.124023	-0.008373	-0.065224
		CHANNELS 3 Zrotation Xrotation Yrotation
		JOINT RightLeg
		{
			OFFSET	 0.000000	 0.000000	 0.570047
			CHANNELS 3 Zrotation Xrotation Yrotation
			JOINT RightFoot
			{
				OFFSET	 0.000000	 0.000000	 0.544354
				CHANNELS 3 Zrotation Xrotation Yrotation
				JOINT RightToeBase
				{
					OFFSET	 0.000000	 0.000000	 0.207540
					CHANNELS 3 Zrotation Xrotation Yrotation
					End Site
					{
						OFFSET	 0.000000	 0.000000	 0.207540
					}
				}
			}
		}
	}
	JOINT Spine
	{
		OFFSET	 0.000184	-0.007763	 0.117403
		CHANNELS 3 Zrotation Xrotation Yrotation
		JOINT Spine1
		{
			OFFSET	 0.000000	 0.000000	 0.137269
			CHANNELS 3 Zrotation Xrotation Yrotation
			JOINT Spine2
			{
				OFFSET	 0.000000	 0.000000	 0.156879
				CHANNELS 3 Zrotation Xrotation Yrotation
				JOINT LeftShoulder
				{
					OFFSET	 0.080501	-0.002496	 0.160144
					CHANNELS 3 Zrotation Xrotation Yrotation
					JOINT LeftArm
					{
						OFFSET	 0.000000	 0.000000	 0.164363
						CHANNELS 3 Zrotation Xrotation Yrotation
						JOINT LeftForeArm
						{
							OFFSET	 0.000000	 0.000000	 0.364576
							CHANNELS 3 Zrotation Xrotation Yrotation
							JOINT LeftHand
							{
								OFFSET	 0.000000	 0.000000	 0.360812
								CHANNELS 3 Zrotation Xrotation Yrotation
								JOINT LeftHandIndex1
								{
									OFFSET	 0.000000	 0.000000	 0.086006
									CHANNELS 3 Zrotation Xrotation Yrotation
									JOINT LeftHandIndex2
									{
										OFFSET	 0.000000	 0.000000	 0.047237
										CHANNELS 3 Zrotation Xrotation Yrotation
										JOINT LeftHandIndex3
										{
											OFFSET	-0.004284	-0.000551	 0.038165
											CHANNELS 3 Zrotation Xrotation Yrotation
											End Site
											{
												OFFSET	-0.004284	-0.000551	 0.038165
											}
										}
									}
								}
							}
						}
					}
				}
				JOINT Neck
				{
					OFFSET	 0.000000	 0.000000	 0.176489
					CHANNELS 3 Zrotation Xrotation Yrotation
					JOINT Head
					{
						OFFSET	 0.000000	-0.001747	 0.077940
						CHANNELS 3 Zrotation Xrotation Yrotation
						End Site
						{
							OFFSET	 0.000000	-0.001747	 0.077940
						}
					}
				}
				JOINT RightShoulder
				{
					OFFSET	-0.080363	 0.000306	 0.159706
					CHANNELS 3 Zrotation Xrotation Yrotation
					JOINT RightArm
					{
						OFFSET	 0.000000	 0.000000	 0.164196
						CHANNELS 3 Zrotation Xrotation Yrotation
						JOINT RightForeArm
						{
							OFFSET	 0.000000	 0.000000	 0.365611
							CHANNELS 3 Zrotation Xrotation Yrotation
							JOINT RightHand
							{
								OFFSET	 0.000000	 0.000000	 0.360648
								CHANNELS 3 Zrotation Xrotation Yrotation
								JOINT RightHandIndex1
								{
									OFFSET	 0.000000	 0.000000	 0.069977
									CHANNELS 3 Zrotation Xrotation Yrotation
									JOINT RightHandIndex2
									{
										OFFSET	 0.000000	 0.000000	 0.052305
										CHANNELS 3 Zrotation Xrotation Yrotation
										JOINT RightHandIndex3
										{
											OFFSET	 0.009002	-0.000782	 0.042196
											CHANNELS 3 Zrotation Xrotation Yrotation
											End Site
											{
												OFFSET	 0.009002	-0.000782	 0.042196
											}
										}
									}
								}
							}
						}
					}
				}
			}
		}
	}
}
MOTION
Frames:    10
Frame Time: 0.03333334
-0.718366	-0.029060	 1.254729	 169.596000	-11.132230	-1.045679	-27.794660	 1.662170	-166.878600	-2.038531	-28.745570	-1.685883	 17.464700	 77.421430	-32.094520	-2.385833	 28.452760	 0.000004	 2.351210	 2.625878	-178.074100	 10.185380	-33.316690	 5.759772	-93.097980	 82.543100	 94.879800	 2.384659	 28.388700	-0.000001	 11.460940	 9.401687	-12.353900	 4.595360	 6.370813	-5.903740	 9.976383	 1.045824	 8.107936	-91.776120	 78.527420	 180.000000	-13.407870	 49.825150	-18.852610	-28.326710	 18.801700	-61.475440	-37.938420	-36.041890	-21.961090	-4.130354	 21.526190	 0.991307	-5.167926	 0.731697	 3.519349	-1.378229	 35.397820	-2.634230	 14.472930	 6.129934	-2.268014	 8.779361	-13.244440	-1.721925	 89.782100	 78.203890	 180.000000	-50.071930	 5.437524	 89.558010	 10.558150	 1.458622	 132.557300	 14.169730	 6.445863	 6.113764	 5.716295	 19.173350	-3.684826	 5.027458	 0.246833	-9.377971	-2.350882	 35.473990	 5.254307
-0.718565	-0.029559	 1.254400	 169.239600	-11.162730	-0.647005	-27.990790	 1.719085	-167.035900	-1.887671	-28.896280	-1.620841	 16.871470	 77.301530	-31.637110	-2.385833	 28.452760	 0.000004	 2.040279	 2.534915	-178.215700	 10.358700	-33.306630	 5.855659	-92.871500	 82.605700	 94.489720	 2.384659	 28.388700	-0.000001	 12.425130	 9.151392	-13.530320	 5.077901	 6.843342	-6.232682	 9.991371	 0.143367	 9.491096	-91.776100	 78.527360	 179.999900	-16.205720	 47.716400	-18.420180	-27.923480	 19.435230	-63.221200	-38.602590	-36.061980	-22.367640	-4.130354	 21.526190	 0.991307	-5.167926	 0.731697	 3.519349	-1.378229	 35.397820	-2.634230	 14.681220	 5.590974	-3.064914	 8.619387	-13.625100	-3.101526	 89.782100	 78.203870	 180.000000	-50.778770	 4.939035	 90.464750	 11.028420	 0.980817	 131.532700	 11.741470	 7.100335	 6.602961	 5.716295	 19.173350	-3.684826	 5.027458	 0.246833	-9.377971	-2.350882	 35.473990	 5.254307
-0.718549	-0.030173	 1.254089	 168.939600	-11.183150	-0.316991	-28.177560	 1.656832	-167.105800	-1.748202	-28.968710	-1.556847	 16.330870	 77.043800	-31.233650	-2.385833	 28.452760	 0.000004	 1.780392	 2.384362	-178.217000	 10.520260	-33.324630	 5.949370	-92.261350	 82.755410	 93.713150	 2.384659	 28.388700	-0.000001	 13.278580	 8.890532	-14.463360	 5.455680	 7.423133	-6.223890	 10.050200	-0.791799	 10.488840	-91.776150	 78.527400	 180.000000	-18.837270	 45.764130	-18.268660	-27.332350	 20.079800	-65.379850	-39.216400	-36.085900	-22.746830	-4.130354	 21.526190	 0.991307	-5.167926	 0.731697	 3.519349	-1.378229	 35.397820	-2.634230	 14.859710	 5.134140	-3.762964	 8.466508	-13.995850	-4.280781	 89.782100	 78.203850	 180.000000	-51.309390	 4.482870	 91.341290	 11.444800	 0.527819	 130.595200	 9.532316	 7.637102	 7.107963	 5.716295	 19.173350	-3.684826	 5.027458	 0.246833	-9.377971	-2.350882	 35.473990	 5.254307
-0.717880	-0.030644	 1.253536	 168.756500	-11.114070	-0.222409	-28.522630	 1.378827	-166.989200	-1.630055	-28.955060	-1.498831	 16.309420	 76.875530	-31.313750	-2.385833	 28.452760	 0.000004	 1.508072	 2.128972	-177.996700	 10.670390	-33.394840	 6.045092	-91.656850	 82.943310	 92.978180	 2.384659	 28.388700	-0.000001	 13.967560	 8.393504	-14.670410	 5.850014	 8.152573	-5.996066	 10.123300	-1.724563	 10.521640	-91.776150	 78.527360	 180.000000	-21.652120	 44.373540	-18.376260	-26.597570	 20.562830	-67.676780	-39.856530	-36.206150	-23.208270	-4.130354	 21.526190	 0.991307	-5.167926	 0.731697	 3.519349	-1.378229	 35.397820	-2.634230	 14.958890	 5.192144	-4.075153	 8.393124	-14.702840	-4.363610	 89.782060	 78.203870	-180.000000	-51.165260	 3.827524	 92.033320	 11.827920	 0.083194	 129.744900	 7.427207	 7.851453	 7.443963	 5.716295	 19.173350	-3.684826	 5.027458	 0.246833	-9.377971	-2.350882	 35.473990	 5.254307
-0.717027	-0.031131	 1.252893	 168.488500	-10.978270	-0.173870	-29.036130	 1.050814	-166.830800	-1.466931	-28.845190	-1.414776	 16.147510	 76.638220	-31.265940	-2.385833	 28.452760	 0.000004	 1.116507	 1.751861	-177.706500	 10.883990	-33.541860	 6.189503	-91.839680	 83.142330	 93.003150	 2.384659	 28.388700	-0.000001	 15.026360	 7.597356	-14.887900	 6.522149	 9.060445	-5.792980	 10.195770	-2.923845	 10.563570	-91.776180	 78.527360	-180.000000	-25.330770	 42.608820	-19.587140	-25.711440	 21.115490	-70.373780	-40.765320	-36.351310	-23.839540	-4.130354	 21.526190	 0.991307	-5.167926	 0.731697	 3.519349	-1.378229	 35.397820	-2.634230	 15.079800	 5.362622	-4.483798	 8.305796	-15.783500	-4.405966	 89.782080	 78.203870	-180.000000	-50.721450	 2.895550	 92.984020	 12.395820	-0.627454	 128.480800	 4.380574	 8.071777	 7.747066	 5.716295	 19.173350	-3.684826	 5.027458	 0.246833	-9.377971	-2.350882	 35.473990	 5.254307
-0.716558	-0.031277	 1.252618	 168.352100	-10.879720	-0.253086	-29.312790	 0.917020	-166.724300	-1.391807	-28.691220	-1.371738	 15.942110	 76.465980	-31.097260	-2.385833	 28.452760	 0.000004	 0.929434	 1.520023	-177.537600	 10.994350	-33.700710	 6.278054	-93.115170	 83.210630	 94.217500	 2.384659	 28.388700	-0.000001	 15.600330	 7.128428	-14.896820	 6.924671	 9.453364	-5.681392	 10.211720	-3.459777	 10.505200	-91.776180	 78.527380	 180.000000	-27.087160	 41.898780	-20.598980	-25.260420	 21.350580	-71.690960	-41.208810	-36.402620	-24.122780	-4.130354	 21.526190	 0.991307	-5.167926	 0.731697	 3.519349	-1.378229	 35.397820	-2.634230	 15.116460	 5.551097	-4.645893	 8.285000	-16.410130	-4.336072	 89.782170	 78.203890	 179.999900	-50.266770	 2.410789	 93.422280	 12.719870	-1.059175	 127.844600	 2.796486	 8.152879	 7.793910	 5.716295	 19.173350	-3.684826	 5.027458	 0.246833	-9.377971	-2.350882	 35.473990	 5.254307
-0.716012	-0.031397	 1.252342	 168.159400	-10.731080	-0.360727	-29.699320	 0.766170	-166.609200	-1.287485	-28.472410	-1.312337	 15.621940	 76.265910	-30.815360	-2.385833	 28.452760	 0.000004	 0.664621	 1.208745	-177.346200	 11.147140	-33.914640	 6.400400	-95.059520	 83.258960	 96.090610	 2.384659	 28.388700	-0.000001	 16.425700	 6.446910	-14.906880	 7.533234	 9.936807	-5.610188	 10.221170	-4.140962	 10.466100	-91.776160	 78.527310	 180.000000	-29.299750	 40.985290	-22.493200	-24.704690	 21.633380	-73.294870	-41.803110	-36.457940	-24.488280	-4.130354	 21.526190	 0.991307	-5.167926	 0.731697	 3.519349	-1.378229	 35.397820	-2.634230	 15.162770	 5.793190	-4.864956	 8.255885	-17.255290	-4.258434	 89.782170	 78.203890	 179.999900	-49.607590	 1.781350	 94.020320	 13.156980	-1.675757	 126.946700	 0.634896	 8.266520	 7.754067	 5.716295	 19.173350	-3.684826	 5.027458	 0.246833	-9.377971	-2.350882	 35.473990	 5.254307
-0.715926	-0.031416	 1.252269	 167.948000	-10.588070	-0.438125	-30.096680	 0.662178	-166.496000	-1.170829	-28.244130	-1.247370	 15.167910	 76.022320	-30.410200	-2.385833	 28.452760	 0.000004	 0.412399	 0.950932	-177.177600	 11.302040	-34.081870	 6.517149	-96.876700	 83.281800	 97.830170	 2.384659	 28.388700	-0.000001	 17.284980	 5.801170	-15.045040	 8.153292	 10.389910	-5.661798	 10.227340	-4.785532	 10.618640	-91.776240	 78.527350	-180.000000	-31.102200	 40.055620	-24.995110	-24.386880	 21.799420	-74.207700	-42.198720	-36.410310	-24.625650	-4.130354	 21.526190	 0.991307	-5.167926	 0.731697	 3.519349	-1.378229	 35.397820	-2.634230	 15.157870	 5.862211	-5.040759	 8.212858	-17.935330	-4.367911	 89.782140	 78.203830	 180.000000	-48.931020	 1.112581	 94.596650	 13.648400	-2.416953	 125.944400	-1.706051	 8.533031	 7.862088	 5.716295	 19.173350	-3.684826	 5.027458	 0.246833	-9.377971	-2.350882	 35.473990	 5.254307
-0.716613	-0.031199	 1.252464	 167.711500	-10.450070	-0.462022	-30.543460	 0.611927	-166.342400	-1.035896	-28.029420	-1.175183	 15.042580	 75.821330	-30.369660	-2.385833	 28.452760	 0.000004	 0.118507	 0.832597	-176.996800	 11.453850	-34.095930	 6.606995	-98.625070	 83.342540	 99.465610	 2.384659	 28.388700	-0.000001	 18.232730	 5.135192	-15.322370	 8.844226	 10.917590	-5.997980	 10.247150	-5.477205	 10.959240	-91.776200	 78.527380	-180.000000	-32.578540	 39.214170	-28.218900	-24.277790	 21.906810	-74.552000	-42.644830	-36.364870	-24.777890	-4.130354	 21.526190	 0.991307	-5.167926	 0.731697	 3.519349	-1.378229	 35.397820	-2.634230	 15.138710	 5.892650	-5.210071	 8.156340	-18.628440	-4.495328	 89.782070	 78.203870	-180.000000	-48.264670	 0.195299	 95.141220	 14.158330	-3.274956	 124.652900	-4.428863	 8.887589	 8.099536	 5.716295	 19.173350	-3.684826	 5.027458	 0.246833	-9.377971	-2.350882	 35.473990	 5.254307
-0.717684	-0.030753	 1.252833	 167.518100	-10.399160	-0.347556	-31.036570	 0.654247	-166.219900	-0.883095	-27.995860	-1.102060	 15.776250	 76.005890	-31.227290	-2.385833	 28.452760	 0.000004	-0.226495	 0.970954	-176.943300	 11.561770	-33.868330	 6.630466	-98.877500	 83.388380	 99.618280	 2.384659	 28.388700	-0.000001	 19.035620	 4.583887	-15.621770	 9.519519	 11.263110	-6.674098	 10.236910	-5.850965	 11.294460	-91.776240	 78.527430	-179.999900	-33.621240	 38.918190	-31.150190	-24.184140	 21.924000	-74.798690	-43.058010	-36.401420	-24.931400	-4.130354	 21.526190	 0.991307	-5.167926	 0.731697	 3.519349	-1.378229	 35.397820	-2.634230	 15.020300	 5.573734	-5.152279	 8.063418	-18.723740	-4.632153	 89.782060	 78.203850	-179.999900	-47.658920	-0.744598	 95.525010	 14.550690	-4.027327	 123.422000	-6.892310	 9.052272	 8.325380	 5.716295	 19.173350	-3.684826	 5.027458	 0.246833	-9.377971	-2.350882	 35.473990	 5.254307
